<?xml version="1.0" standalone="no"?>
<!DOCTYPE svg PUBLIC "-//W3C//DTD SVG 20010904//EN"
 "http://www.w3.org/TR/2001/REC-SVG-20010904/DTD/svg10.dtd">
<svg version="1.0" xmlns="http://www.w3.org/2000/svg"
 width="1408.000000pt" height="1408.000000pt" viewBox="0 0 1408.000000 1408.000000"
 preserveAspectRatio="xMidYMid meet">
<metadata>
Created by potrace 1.14, written by Peter Selinger 2001-2017
</metadata>
<g transform="translate(0.000000,1408.000000) scale(0.100000,-0.100000)"
fill="#000000" stroke="none">
<path d="M12378 9675 c-2 -1 -27 -5 -57 -8 -29 -3 -56 -9 -59 -12 -4 -4 -7
-260 -7 -569 l0 -563 40 -1 c163 -6 287 -53 362 -137 49 -55 67 -87 89 -160
45 -157 14 -348 -93 -560 -39 -79 -126 -221 -143 -235 -3 -3 -17 -21 -30 -40
-13 -19 -27 -37 -30 -40 -4 -3 -37 -41 -75 -85 -169 -195 -589 -615 -1046
-1046 -74 -70 -150 -141 -169 -159 -39 -36 -215 -199 -264 -245 -18 -16 -54
-50 -82 -74 -78 -69 -78 -70 28 -66 51 3 179 7 283 10 105 3 242 7 305 10 122
5 288 10 905 29 l160 5 205 208 c197 200 360 373 431 458 19 22 44 51 56 65
43 50 65 76 94 110 48 59 143 182 184 240 22 30 43 57 47 58 5 2 8 8 8 13 0 6
17 33 38 62 123 171 268 456 337 663 37 111 88 313 100 394 3 25 8 56 10 70
22 152 22 365 0 470 -3 14 -8 36 -10 50 -18 100 -44 175 -110 315 -26 55 -58
114 -71 132 -13 17 -24 34 -24 38 0 6 -54 78 -80 104 -8 9 -24 27 -35 41 -21
26 -121 119 -166 155 -72 58 -206 135 -332 190 -159 69 -407 113 -639 113 -87
-1 -159 -2 -160 -3z"/>
<path d="M12005 9623 c-353 -79 -685 -253 -909 -477 -192 -192 -346 -458 -426
-736 -8 -25 -15 -49 -16 -55 -15 -50 -63 -305 -68 -360 -4 -38 -9 -88 -12
-110 -7 -52 -11 -413 -6 -442 3 -18 9 -22 31 -18 35 6 130 15 221 21 41 2 91
6 110 9 19 2 71 7 115 10 44 4 96 8 115 10 19 2 71 7 115 10 44 4 91 8 105 10
13 3 65 7 115 11 49 3 101 8 115 9 14 2 32 4 41 4 14 1 16 19 16 149 -1 168 3
254 14 297 4 17 10 48 13 70 6 37 32 115 59 175 20 44 84 126 128 163 23 20
70 51 105 69 62 32 64 34 64 73 1 36 1 939 0 1063 0 53 -2 55 -45 45z"/>
<path d="M10095 9234 c-44 -7 -105 -15 -135 -19 -81 -11 -81 -11 -140 -20 -30
-4 -66 -9 -80 -10 -37 -5 -101 -15 -130 -21 -14 -3 -47 -8 -75 -10 -27 -2 -61
-6 -75 -9 -14 -3 -45 -7 -70 -10 -25 -3 -56 -7 -70 -10 -14 -3 -45 -7 -70 -10
-25 -3 -56 -7 -70 -10 -28 -5 -107 -15 -160 -20 -19 -2 -35 -4 -35 -5 0 -1 -9
-3 -20 -4 -11 -2 -42 -6 -70 -10 -27 -4 -66 -10 -85 -12 -65 -10 -95 -14 -122
-20 l-27 -5 0 -510 1 -509 66 5 c37 3 85 8 107 11 41 5 65 8 170 19 33 3 78 8
100 10 22 2 56 7 75 9 19 3 62 8 95 11 33 3 78 7 100 10 22 2 65 7 95 10 86 9
142 16 175 20 17 2 59 7 95 10 36 3 81 8 100 11 19 3 58 7 85 10 28 2 66 6 85
8 19 3 64 8 100 11 36 4 67 11 70 15 7 11 6 1057 0 1062 -3 2 -41 -2 -85 -8z"/>
<path d="M8449 9006 c-2 -2 -28 -7 -58 -11 -30 -4 -61 -8 -70 -10 -16 -3 -85
-12 -155 -21 -22 -2 -51 -6 -65 -8 -24 -4 -80 -12 -141 -21 -14 -2 -45 -7 -70
-10 -25 -3 -56 -8 -70 -10 -25 -4 -154 -21 -225 -30 -21 -3 -50 -7 -64 -9
-122 -19 -112 -14 -107 -52 2 -19 -1 -37 -6 -40 -4 -3 -6 -10 -2 -15 10 -17
12 -59 2 -65 -4 -3 -6 -10 -2 -15 5 -9 8 -674 3 -704 -1 -5 0 -14 1 -20 7 -32
6 -56 -2 -61 -4 -3 -6 -10 -2 -15 10 -17 12 -59 2 -65 -4 -3 -6 -10 -2 -15 10
-17 12 -59 2 -65 -4 -3 -6 -10 -2 -15 5 -9 8 -674 3 -704 -1 -5 0 -14 1 -20 7
-32 6 -56 -2 -61 -4 -3 -6 -10 -2 -15 10 -17 12 -59 2 -65 -4 -3 -6 -10 -2
-15 10 -17 12 -59 2 -65 -4 -3 -6 -10 -2 -15 5 -9 8 -674 3 -704 -1 -5 0 -14
1 -20 7 -32 6 -56 -2 -61 -4 -3 -6 -10 -2 -15 10 -17 12 -59 2 -65 -4 -3 -6
-10 -2 -15 10 -17 12 -59 2 -65 -4 -3 -6 -10 -2 -15 5 -9 8 -674 3 -704 -1 -5
0 -14 1 -20 7 -32 6 -56 -2 -61 -4 -3 -6 -10 -2 -15 10 -17 12 -59 2 -65 -4
-3 -6 -10 -2 -15 10 -17 12 -59 2 -65 -4 -3 -5 -10 -2 -16 4 -5 6 -109 6 -229
l-1 -219 522 2 522 3 1 2298 c0 1264 -3 2300 -7 2302 -3 3 -8 3 -10 1z"/>
<path d="M5619 8606 c-2 -2 -35 -7 -73 -11 -38 -3 -72 -8 -75 -9 -3 -2 -33 -7
-66 -10 -70 -8 -97 -12 -145 -19 -48 -8 -129 -19 -165 -23 -16 -1 -30 -3 -30
-4 0 -3 -40 -9 -100 -16 -33 -3 -67 -8 -76 -9 -9 -2 -40 -6 -70 -10 -30 -4
-58 -10 -63 -15 -6 -6 -12 -3939 -7 -4067 1 -10 99 -13 454 -13 l453 0 0 2105
c0 1934 -2 2105 -16 2105 -9 0 -19 -2 -21 -4z"/>
<path d="M4389 8436 c-2 -2 -29 -7 -59 -11 -30 -3 -66 -8 -80 -10 -68 -10
-109 -15 -150 -20 -25 -3 -52 -8 -60 -10 -8 -2 -40 -7 -70 -10 -30 -3 -66 -8
-80 -10 -14 -2 -45 -7 -70 -10 -25 -4 -56 -8 -70 -10 -14 -2 -45 -6 -70 -9
-25 -3 -54 -8 -66 -10 -12 -2 -45 -7 -75 -11 -30 -3 -65 -8 -79 -10 -48 -8
-115 -18 -140 -19 l-25 -2 -2 -433 -2 -433 47 6 c26 3 76 8 112 11 35 3 80 8
100 11 19 4 53 7 75 9 47 4 145 14 196 21 20 2 59 7 85 9 27 3 65 7 84 10 20
3 60 7 90 10 30 3 78 8 105 11 65 8 86 10 170 18 39 4 74 11 80 17 5 6 9 181
10 449 l0 440 -26 0 c-14 0 -28 -2 -30 -4z"/>
<path d="M3099 8256 c-4 -4 -56 -12 -139 -21 -25 -3 -54 -7 -65 -10 -11 -2
-47 -7 -79 -11 -33 -3 -67 -7 -75 -9 -30 -5 -96 -15 -136 -20 -22 -3 -51 -7
-65 -9 -25 -5 -98 -15 -153 -21 -15 -1 -31 -6 -35 -9 -3 -4 -7 -848 -7 -1877
l0 -1869 400 0 400 0 0 1930 0 1930 -21 0 c-11 0 -23 -2 -25 -4z"/>
<path d="M2029 8106 c-2 -2 -26 -7 -54 -10 -51 -7 -87 -11 -165 -22 -25 -3
-56 -7 -70 -9 -28 -4 -93 -14 -130 -21 -14 -3 -45 -7 -70 -9 -25 -2 -58 -6
-75 -9 -16 -2 -52 -7 -80 -11 -48 -6 -61 -8 -130 -19 -64 -10 -112 -16 -150
-21 -22 -3 -56 -7 -75 -10 -19 -3 -55 -8 -80 -11 -87 -11 -95 -12 -135 -18
-22 -4 -58 -9 -80 -12 -50 -7 -70 -10 -170 -24 -44 -6 -91 -13 -105 -15 -14
-2 -43 -6 -65 -9 -22 -4 -58 -9 -80 -11 -51 -6 -105 -14 -130 -19 -11 -2 -47
-7 -80 -10 -33 -4 -69 -8 -80 -10 -20 -3 -20 -12 -23 -385 l-2 -383 57 7 c32
3 78 8 103 11 25 2 63 6 85 9 22 2 64 7 94 10 30 3 68 8 85 10 33 5 113 13
187 20 26 2 64 6 85 9 22 3 68 8 104 11 36 4 76 8 90 10 14 2 53 7 88 10 35 4
71 8 80 10 9 1 51 6 92 10 41 3 89 8 105 10 27 4 94 11 185 20 19 2 53 6 75 9
22 2 67 7 100 11 33 3 71 8 85 10 14 2 55 6 92 10 37 3 75 7 85 9 16 3 153 18
179 19 8 0 11 122 11 414 0 378 -2 413 -17 413 -9 0 -19 -2 -21 -4z"/>
<path d="M9567 7314 c-2 -2 -37 -6 -78 -9 -73 -5 -141 -10 -249 -20 -30 -3
-80 -7 -110 -9 -120 -9 -207 -17 -240 -21 -19 -2 -69 -7 -110 -10 -41 -3 -84
-7 -95 -9 -20 -3 -20 -11 -22 -523 l-2 -520 77 3 c42 1 122 5 177 9 55 3 143
8 195 10 159 8 270 14 375 21 55 3 117 6 138 7 l37 1 0 537 0 537 -45 -1 c-25
0 -46 -2 -48 -3z"/>
<path d="M1348 7085 c-2 -2 -35 -6 -73 -10 -39 -3 -81 -8 -95 -10 -14 -3 -50
-7 -80 -9 -63 -6 -173 -17 -210 -21 -38 -4 -172 -17 -200 -19 l-25 -2 -3
-1307 -2 -1307 378 0 377 0 1 1343 0 1343 -33 1 c-17 0 -33 -1 -35 -2z"/>
<path d="M3947 6834 c-1 -1 -38 -5 -82 -8 -44 -3 -105 -9 -135 -12 -30 -3 -77
-7 -105 -9 -27 -2 -50 -4 -50 -5 0 0 -25 -2 -55 -4 -112 -8 -215 -18 -222 -22
-4 -3 -7 -200 -7 -440 l1 -435 126 7 c70 3 154 8 187 10 118 6 331 17 383 18
37 1 53 5 57 16 2 8 3 211 2 450 l-2 435 -48 0 c-26 1 -49 0 -50 -1z"/>
<path d="M13726 5583 c-1 -1 -118 -5 -261 -8 -143 -3 -334 -8 -425 -10 -153
-4 -284 -7 -805 -20 -110 -2 -297 -7 -415 -10 -336 -9 -576 -15 -820 -20 -215
-5 -458 -12 -471 -14 -3 -1 -6 -248 -6 -551 l0 -550 1779 0 1778 0 0 595 0
595 -176 -2 c-96 -2 -176 -4 -178 -5z"/>
<path d="M9847 5463 c-1 -1 -105 -4 -232 -8 -126 -3 -295 -8 -375 -11 -80 -3
-151 -5 -157 -5 -7 1 -19 1 -25 1 -23 1 -332 -11 -363 -13 l-30 -2 -2 -513 -1
-512 761 2 762 3 0 533 0 533 -168 -3 c-93 -2 -169 -4 -170 -5z"/>
<path d="M6867 5373 c-2 -1 -106 -4 -232 -8 -582 -15 -792 -22 -802 -28 -4 -3
-8 -214 -8 -469 l0 -463 660 -3 660 -2 0 487 0 488 -138 0 c-76 0 -139 -1
-140 -2z"/>
<path d="M4186 5293 c-1 -1 -96 -5 -211 -7 -275 -7 -623 -18 -655 -20 l-25 -1
0 -430 0 -430 575 0 574 0 0 445 0 445 -128 0 c-70 0 -129 -1 -130 -2z"/>
</g>
</svg>
