<svg width="32" height="32" viewBox="0 0 32 32" fill="none" xmlns="http://www.w3.org/2000/svg">
<path fill-rule="evenodd" clip-rule="evenodd" d="M27.7218 4.2792C27.3526 3.91003 26.7541 3.91003 26.3849 4.2792L16.0003 14.6638L5.61571 4.2792C5.24654 3.91003 4.648 3.91003 4.27883 4.2792C3.90966 4.64837 3.90966 5.24691 4.27883 5.61608L14.6634 16.0007L4.27883 26.3852C3.90966 26.7544 3.90966 27.353 4.27883 27.7221C4.648 28.0913 5.24654 28.0913 5.61571 27.7221L16.0003 17.3375L26.3849 27.7221C26.7541 28.0913 27.3526 28.0913 27.7218 27.7221C28.0909 27.353 28.0909 26.7544 27.7218 26.3852L17.3372 16.0007L27.7218 5.61608C28.0909 5.24691 28.0909 4.64837 27.7218 4.2792Z" fill="white"/>
</svg>
