<svg width="20" height="20" viewBox="0 0 20 20" fill="none" xmlns="http://www.w3.org/2000/svg">
<path fill-rule="evenodd" clip-rule="evenodd" d="M7.17391 0C5.26087 0 3.45652 0.740741 2.10869 2.11329C0.73913 3.46405 0 5.27233 0 7.18954C0 9.10675 0.73913 10.915 2.10869 12.2658C3.45652 13.6383 5.26087 14.3791 7.17391 14.3791C8.63043 14.3791 10 13.9434 11.2174 13.1155C11.2174 13.1373 11.2174 13.1373 11.2391 13.159L12.5652 14.488L12.5217 14.5316C12.2609 14.7712 12.2609 15.1852 12.5217 15.4466L16.8696 19.8039C17 19.9346 17.1522 20 17.3261 20C17.4783 20 17.6522 19.9346 17.7826 19.8039L19.8043 17.7778C20.0652 17.5381 20.0652 17.1242 19.8043 16.8627L15.4565 12.5054C15.2174 12.244 14.8043 12.244 14.5435 12.5054L14.5 12.549L13.1739 11.22C13.1739 11.22 13.1522 11.1983 13.1304 11.1983C15 8.40959 14.7174 4.57516 12.2391 2.11329C10.8913 0.740741 9.08696 0 7.17391 0ZM17.1739 19.5425L12.8261 15.1852C12.7391 15.098 12.7391 14.9673 12.8043 14.902L13 14.7059L14.6522 13.0501L14.8478 12.854C14.8913 12.8105 14.9348 12.7887 15 12.7887C15.0435 12.7887 15.1087 12.8105 15.1522 12.854L19.5 17.2113C19.587 17.2985 19.587 17.4292 19.5 17.5163L17.4783 19.5425C17.3913 19.6296 17.2609 19.6296 17.1739 19.5425ZM14.1957 12.8758L12.8478 14.2266L11.5217 12.8976C11.7609 12.7015 12.0217 12.4837 12.2391 12.2658C12.4347 12.0877 12.6011 11.8804 12.7623 11.6797C12.7982 11.635 12.8339 11.5905 12.8696 11.5468L14.1957 12.8758ZM7.17391 13.9434C5.36956 13.9434 3.67391 13.2462 2.41304 11.9608C1.13043 10.6972 0.434783 8.99782 0.434783 7.18954C0.434783 5.38126 1.13043 3.68192 2.41304 2.4183C3.67391 1.1329 5.36956 0.43573 7.17391 0.43573C8.97826 0.43573 10.6522 1.15468 11.9348 2.4183C13.2174 3.68192 13.913 5.38126 13.913 7.18954C13.913 8.99782 13.1957 10.6754 11.9348 11.9608C10.6739 13.2462 8.97826 13.9434 7.17391 13.9434ZM7.17391 1.08932C5.54347 1.08932 4.02173 1.72113 2.86956 2.87582C1.71739 4.0305 1.08695 5.55556 1.08695 7.18954C1.08695 8.82353 1.71739 10.3486 2.86956 11.5033C4.02173 12.658 5.54347 13.2898 7.17391 13.2898C8.80434 13.2898 10.3261 12.658 11.4783 11.5033C12.6304 10.3486 13.2609 8.82353 13.2609 7.18954C13.2609 5.55556 12.6304 4.0305 11.4783 2.87582C10.3261 1.72113 8.80434 1.08932 7.17391 1.08932ZM4.32608 4.94553C4.21739 5.59913 4.15217 6.27451 4.13043 6.97168V6.99346H1.54347C1.65217 6.40523 2.19565 5.83878 3.10869 5.40305C3.47826 5.20697 3.8913 5.07625 4.32608 4.94553ZM6.95652 6.97168H4.56521C4.58695 6.23094 4.65217 5.51198 4.80434 4.81481C5.49999 4.66231 6.21739 4.59695 6.95652 4.57516V6.97168ZM6.95652 1.54684V4.13943C6.26086 4.16122 5.58695 4.22658 4.91304 4.33551C5.04347 3.89978 5.19565 3.48584 5.36956 3.11547C5.80434 2.20044 6.36956 1.65577 6.95652 1.54684ZM7.3913 4.13943V1.54684C7.97826 1.65577 8.54347 2.20044 8.95652 3.11547C9.15217 3.48584 9.2826 3.89978 9.41304 4.33551C8.76086 4.22658 8.08695 4.16122 7.3913 4.13943ZM7.3913 6.97168V4.57516C8.13043 4.59695 8.84782 4.66231 9.54347 4.81481C9.69565 5.51198 9.76086 6.23094 9.7826 6.97168H7.3913ZM12.8043 6.97168H10.2174C10.1956 6.27451 10.1304 5.59913 10.0217 4.92375C10.4565 5.05447 10.8696 5.20697 11.2391 5.38126C12.1522 5.81699 12.6956 6.38344 12.8043 6.97168ZM10.0217 9.43355C10.1304 8.77996 10.1956 8.10457 10.2174 7.40741V7.38562H12.8043C12.6956 7.97386 12.1522 8.5403 11.2391 8.97603C10.8696 9.17211 10.4565 9.30283 10.0217 9.43355ZM7.3913 7.40741H9.7826C9.76086 8.14815 9.69565 8.8671 9.54347 9.56427C8.84782 9.71678 8.13043 9.78213 7.3913 9.80392V7.40741ZM7.3913 12.8322V10.2397C8.08695 10.2179 8.76086 10.1525 9.43478 10.0436C9.30434 10.4793 9.15217 10.8932 8.97826 11.2636C8.54347 12.1786 7.97826 12.7233 7.3913 12.8322ZM6.95652 10.2397V12.8322C6.36956 12.7233 5.80434 12.1786 5.3913 11.2636C5.19565 10.8932 5.06521 10.4793 4.93478 10.0436C5.58695 10.1525 6.26086 10.2179 6.95652 10.2397ZM6.95652 7.40741V9.80392C6.21739 9.78213 5.49999 9.71678 4.80434 9.56427C4.65217 8.8671 4.58695 8.14815 4.56521 7.40741H6.95652ZM1.54347 7.40741H4.13043C4.15217 8.10457 4.21739 8.77996 4.32608 9.45534C3.8913 9.32462 3.47826 9.17211 3.10869 8.99782C2.19565 8.56209 1.65217 7.99564 1.54347 7.40741ZM1.67391 5.86057C1.91304 4.85839 2.43478 3.92157 3.17391 3.18083C3.93478 2.44009 4.84782 1.91721 5.84782 1.67756C5.52173 2.00436 5.23913 2.4183 4.97826 2.94118C4.76086 3.39869 4.58695 3.92157 4.45652 4.46623C3.91304 4.59695 3.3913 4.77124 2.93478 4.98911C2.3913 5.25054 1.97825 5.53377 1.67391 5.86057ZM8.49999 1.67756C9.49999 1.91721 10.4348 2.44009 11.1739 3.18083C11.913 3.94336 12.4348 4.85839 12.6739 5.86057C12.3478 5.53377 11.9348 5.25054 11.413 4.98911C10.9565 4.77124 10.4348 4.59695 9.8913 4.46623C9.76086 3.92157 9.58695 3.39869 9.36956 2.94118C9.10869 2.39651 8.82608 1.98257 8.49999 1.67756ZM12.6739 8.51852C12.4348 9.5207 11.913 10.4575 11.1739 11.1983C10.413 11.939 9.49999 12.4619 8.49999 12.7015C8.82608 12.3747 9.10869 11.9608 9.36956 11.4379C9.58695 10.9804 9.76086 10.4575 9.8913 9.91285C10.4348 9.78213 10.9565 9.60784 11.413 9.38998C11.9565 9.12854 12.3696 8.84532 12.6739 8.51852ZM5.84782 12.7015C4.84782 12.4619 3.91304 11.939 3.17391 11.1983C2.43478 10.4357 1.91304 9.5207 1.67391 8.51852C1.99999 8.84532 2.41304 9.12854 2.93478 9.38998C3.3913 9.60784 3.91304 9.78213 4.45652 9.91285C4.58695 10.4575 4.76086 10.9804 4.97826 11.4379C5.23913 11.9826 5.52173 12.3965 5.84782 12.7015Z" fill="#48CCFD"/>
</svg>
